<?xml version="1.0" encoding="UTF-8"?>
<svg id="Calque_2" data-name="Calque 2" xmlns="http://www.w3.org/2000/svg" viewBox="0 0 506.43 80.2">
  <defs>
    <style>
      .cls-1 {
        fill: #fb4d3d;
      }

      .cls-1, .cls-2 {
        stroke-width: 0px;
      }

      .cls-2 {
        fill: #001524;
      }
    </style>
  </defs>
  <g id="Calque_1-2" data-name="Calque 1">
    <g>
      <path class="cls-2" d="M0,78.66V1.54h31.73c4.85,0,9.12.97,12.83,2.92,3.71,1.95,6.61,4.68,8.7,8.21,2.09,3.53,3.14,7.71,3.14,12.56v1.54c0,4.77-1.08,8.94-3.25,12.5-2.17,3.56-5.11,6.32-8.81,8.26-3.71,1.95-7.92,2.92-12.61,2.92H14.54v28.2H0ZM14.54,37.24h15.75c3.45,0,6.24-.95,8.37-2.86,2.13-1.91,3.19-4.52,3.19-7.82v-1.1c0-3.3-1.07-5.91-3.19-7.82-2.13-1.91-4.92-2.86-8.37-2.86h-15.75v22.47Z"/>
      <path class="cls-2" d="M68.41,17.63c-2.5,0-4.61-.81-6.33-2.42-1.73-1.61-2.59-3.75-2.59-6.39s.86-4.77,2.59-6.39c1.72-1.61,3.84-2.42,6.33-2.42s4.7.81,6.39,2.42c1.69,1.62,2.53,3.75,2.53,6.39s-.85,4.78-2.53,6.39c-1.69,1.62-3.82,2.42-6.39,2.42ZM61.47,78.66V24.02h13.88v54.64h-13.88Z"/>
      <path class="cls-2" d="M110.17,80.2c-5.44,0-10.23-1.16-14.38-3.47-4.15-2.31-7.38-5.58-9.69-9.8-2.31-4.22-3.47-9.2-3.47-14.93v-1.32c0-5.73,1.14-10.7,3.42-14.93,2.28-4.22,5.47-7.49,9.58-9.8,4.11-2.31,8.89-3.47,14.32-3.47s10.03,1.19,13.99,3.58c3.97,2.39,7.05,5.69,9.25,9.92,2.2,4.22,3.31,9.13,3.31,14.71v4.74h-39.77c.15,3.75,1.54,6.79,4.19,9.14,2.64,2.35,5.88,3.53,9.69,3.53s6.76-.84,8.59-2.53c1.83-1.69,3.23-3.56,4.19-5.62l11.35,5.95c-1.03,1.91-2.52,3.99-4.46,6.22-1.95,2.24-4.54,4.15-7.77,5.73-3.23,1.58-7.35,2.37-12.34,2.37ZM96.84,45.06h25.56c-.29-3.16-1.56-5.69-3.8-7.6-2.24-1.91-5.16-2.87-8.76-2.87s-6.72.96-8.92,2.87c-2.2,1.91-3.56,4.44-4.08,7.6Z"/>
      <path class="cls-2" d="M143.33,78.66V24.02h13.66v6.17h1.98c.81-2.2,2.15-3.82,4.02-4.85,1.87-1.03,4.06-1.54,6.55-1.54h6.61v12.34h-6.83c-3.53,0-6.43.94-8.7,2.81-2.28,1.87-3.42,4.76-3.42,8.65v31.07h-13.88Z"/>
      <path class="cls-2" d="M181.44,78.66V24.02h13.66v6.17h1.98c.81-2.2,2.15-3.82,4.02-4.85,1.87-1.03,4.06-1.54,6.55-1.54h6.61v12.34h-6.83c-3.53,0-6.43.94-8.7,2.81-2.28,1.87-3.42,4.76-3.42,8.65v31.07h-13.88Z"/>
      <path class="cls-2" d="M244.46,80.2c-5.44,0-10.23-1.16-14.38-3.47-4.15-2.31-7.38-5.58-9.69-9.8-2.31-4.22-3.47-9.2-3.47-14.93v-1.32c0-5.73,1.14-10.7,3.42-14.93,2.28-4.22,5.47-7.49,9.58-9.8,4.11-2.31,8.89-3.47,14.32-3.47s10.03,1.19,13.99,3.58c3.97,2.39,7.05,5.69,9.25,9.92,2.2,4.22,3.31,9.13,3.31,14.71v4.74h-39.77c.15,3.75,1.54,6.79,4.19,9.14,2.64,2.35,5.88,3.53,9.69,3.53s6.76-.84,8.59-2.53c1.83-1.69,3.23-3.56,4.19-5.62l11.35,5.95c-1.03,1.91-2.52,3.99-4.46,6.22-1.95,2.24-4.54,4.15-7.77,5.73-3.23,1.58-7.35,2.37-12.34,2.37ZM231.13,45.06h25.56c-.29-3.16-1.56-5.69-3.8-7.6-2.24-1.91-5.16-2.87-8.76-2.87s-6.72.96-8.92,2.87c-2.2,1.91-3.56,4.44-4.08,7.6Z"/>
      <polygon class="cls-2" points="299.65 78.66 299.65 1.54 348.13 1.54 348.13 14.76 314.2 14.76 314.2 33.38 345.48 33.38 345.48 46.6 314.2 46.6 314.2 78.66 299.65 78.66"/>
      <path class="cls-2" d="M353.41,78.66V24.02h13.66v6.17h1.98c.81-2.2,2.15-3.82,4.02-4.85,1.87-1.03,4.06-1.54,6.55-1.54h6.61v12.34h-6.83c-3.53,0-6.43.94-8.7,2.81-2.28,1.87-3.42,4.76-3.42,8.65v31.07h-13.88Z"/>
      <path class="cls-2" d="M413.57,80.2c-4.33,0-8.39-1.08-12.17-3.25-3.78-2.17-6.81-5.34-9.09-9.53-2.28-4.19-3.42-9.25-3.42-15.2v-1.76c0-5.95,1.14-11.02,3.42-15.2,2.28-4.19,5.29-7.36,9.03-9.53,3.75-2.17,7.82-3.25,12.23-3.25,3.3,0,6.08.39,8.32,1.16,2.24.77,4.06,1.75,5.45,2.92,1.39,1.18,2.46,2.42,3.19,3.75h1.98V1.54h13.88v77.12h-13.66v-6.61h-1.98c-1.25,2.06-3.18,3.93-5.78,5.62-2.61,1.69-6.41,2.53-11.4,2.53ZM417.75,68.08c4.26,0,7.82-1.38,10.69-4.13,2.86-2.75,4.3-6.78,4.3-12.06v-1.1c0-5.29-1.42-9.31-4.24-12.06-2.83-2.75-6.41-4.13-10.74-4.13s-7.82,1.38-10.69,4.13c-2.86,2.75-4.3,6.78-4.3,12.06v1.1c0,5.29,1.43,9.31,4.3,12.06,2.86,2.75,6.43,4.13,10.69,4.13Z"/>
      <rect class="cls-2" x="456.31" y="1.54" width="13.88" height="77.12"/>
      <circle class="cls-1" cx="494.52" cy="68.3" r="11.9"/>
    </g>
  </g>
</svg>